<svg width="748" height="421" viewBox="0 0 748 421" fill="none" xmlns="http://www.w3.org/2000/svg">
<rect width="746.666" height="420" transform="matrix(-1 0 0 1 747.645 0.320312)" fill="#15234A"/>
<path fill-rule="evenodd" clip-rule="evenodd" d="M137.948 80.3587C139.522 83.6545 140.436 87.326 140.517 91.2025H145.856C145.786 87.1023 144.947 83.1245 143.358 79.3711C142.56 77.4844 141.571 75.6643 140.421 73.9625C139.385 72.4308 138.211 70.9834 136.924 69.6508L133.149 73.4243C134.203 74.5237 135.163 75.7137 136.017 76.9816C136.039 77.0028 136.061 77.0245 136.082 77.0457C136.4 77.3661 138.439 79.9023 138.045 80.2703C138.016 80.2974 137.986 80.3233 137.955 80.3486C137.952 80.3516 137.95 80.3551 137.948 80.3587ZM140.421 109.571C141.571 107.868 142.56 106.048 143.358 104.162C144.947 100.408 145.786 96.4304 145.856 92.3302H140.517C140.373 99.2251 137.596 105.472 133.149 110.108L136.924 113.882C138.211 112.549 139.385 111.102 140.421 109.571ZM126.401 121.109C128.289 120.312 130.109 119.323 131.813 118.173C133.345 117.139 134.793 115.965 136.126 114.679L132.351 110.906C130.478 112.7 128.342 114.222 126.007 115.409H126.007C125.267 115.968 124.365 116.377 123.673 116.69L123.632 116.709C123.593 116.727 123.552 116.746 123.511 116.765C123.254 116.885 122.979 117.014 122.693 117.014C122.623 117.014 122.579 116.974 122.531 116.93C122.516 116.916 122.501 116.902 122.485 116.889C119.989 117.731 117.328 118.212 114.563 118.269V123.606C118.666 123.536 122.646 122.697 126.401 121.109ZM114.563 109.799V110.676C115.489 110.649 116.404 110.555 117.305 110.397C117.316 110.307 117.249 110.235 117.128 110.157C116.963 109.979 116.628 109.966 116.391 110.03C115.989 110.139 115.838 110.048 115.66 109.942C115.475 109.831 115.261 109.703 114.704 109.767C114.653 109.772 114.607 109.784 114.563 109.799ZM117.677 111.479L117.673 111.476C116.661 111.663 115.622 111.775 114.563 111.804V117.142C116.707 117.096 118.807 116.785 120.842 116.217C120.826 116.213 120.811 116.207 120.8 116.203C120.713 116.163 120.687 116.104 120.662 116.047C120.653 116.026 120.644 116.005 120.632 115.986C120.48 115.857 120.36 115.697 120.242 115.54C120.054 115.289 119.87 115.044 119.57 114.942C118.73 114.653 118.504 114.136 118.958 113.388C119.204 112.983 119.107 112.824 118.819 112.393C118.567 112.015 118.283 111.849 118.005 111.686C117.898 111.623 117.792 111.561 117.688 111.487C117.684 111.484 117.68 111.481 117.677 111.479ZM114.04 103.421C114.166 103.367 114.283 103.317 114.386 103.3C114.421 103.294 114.457 103.288 114.492 103.281C114.516 103.277 114.539 103.272 114.563 103.268C114.718 103.239 114.874 103.206 115.029 103.174C115.359 103.104 115.685 103.035 115.979 103.006C116.276 102.976 116.234 103.201 116.194 103.409C116.163 103.572 116.133 103.726 116.272 103.739C116.329 103.745 116.415 103.756 116.518 103.769C116.677 103.79 116.878 103.816 117.088 103.836C117.635 103.889 118.24 103.905 118.307 103.69C118.312 103.673 118.317 103.658 118.322 103.642C118.349 103.554 118.371 103.481 118.402 103.422C118.459 103.31 118.545 103.243 118.75 103.199C118.872 103.173 118.988 103.152 119.101 103.133C119.131 103.128 119.16 103.124 119.189 103.119C119.622 103.047 120.004 102.984 120.405 102.678C120.479 102.621 120.584 102.579 120.691 102.535C120.861 102.466 121.037 102.394 121.106 102.261C121.134 102.207 121.144 102.103 121.135 101.979C121.111 101.607 120.929 101.059 120.642 101.185C120.562 101.221 120.475 101.29 120.37 101.373C120.231 101.484 120.061 101.62 119.833 101.734C119.473 101.914 119.217 101.997 118.962 101.655C118.769 101.397 118.988 101.185 119.178 101.001C119.218 100.963 119.257 100.925 119.29 100.889C119.314 100.863 119.337 100.838 119.36 100.812C119.63 100.514 119.881 100.236 120.185 100.236C120.312 100.236 120.993 99.897 120.936 99.5873C120.892 99.351 120.599 99.4065 120.328 99.4576C120.139 99.4932 119.962 99.5267 119.886 99.4589C119.818 99.3982 119.822 99.2877 119.826 99.1912C119.829 99.107 119.831 99.0334 119.785 99.0131C119.693 98.9696 119.4 99.3682 119.627 99.5843C119.743 99.6962 119.437 100.009 119.093 99.7845C118.829 99.6096 118.76 100.573 118.783 100.75C118.792 100.815 118.847 100.849 118.901 100.883C118.993 100.94 119.081 100.994 118.928 101.194C118.786 101.381 118.696 101.377 118.61 101.374C118.549 101.371 118.49 101.369 118.415 101.433C118.199 101.622 118.151 101.695 118.415 101.97C118.627 102.187 118.29 102.602 118.213 102.214C118.187 102.087 118.044 102.042 117.892 101.994C117.734 101.944 117.568 101.891 117.516 101.742C117.451 101.558 117.26 101.498 116.998 101.416C116.833 101.364 116.641 101.303 116.434 101.198C116.028 100.989 116.08 101.604 116.768 101.761C117.352 101.894 117.322 101.963 117.155 102.328C117.093 102.465 117.064 102.429 116.986 102.333C116.893 102.218 116.729 102.015 116.35 101.914C116.141 101.859 116.025 101.777 115.925 101.707C115.812 101.627 115.718 101.561 115.532 101.563C115.365 101.565 115.302 101.64 115.243 101.71C115.177 101.789 115.116 101.862 114.917 101.816C114.752 101.777 114.668 101.889 114.575 102.012C114.571 102.017 114.567 102.023 114.563 102.028C114.499 102.112 114.43 102.199 114.326 102.242C114.166 102.311 114.091 102.491 114.014 102.673C113.939 102.854 113.862 103.037 113.701 103.117C113.623 103.155 113.532 103.182 113.435 103.199C112.925 103.289 112.232 103.099 112.27 102.696C112.272 102.676 112.274 102.656 112.276 102.636C112.318 102.187 112.349 101.852 112.615 101.691C112.732 101.621 112.886 101.683 113.052 101.75C113.176 101.8 113.307 101.853 113.435 101.855C113.491 101.856 113.548 101.846 113.602 101.822C113.957 101.665 113.868 101.287 113.653 101.045C113.627 101.012 113.571 100.972 113.513 100.93C113.486 100.911 113.459 100.892 113.435 100.873C113.377 100.829 113.332 100.786 113.334 100.752C113.336 100.725 113.375 100.701 113.435 100.678C113.486 100.659 113.553 100.64 113.626 100.619C113.784 100.573 113.974 100.518 114.102 100.432C114.257 100.328 114.418 100.12 114.551 99.9494L114.563 99.9335C114.645 99.8281 114.715 99.7386 114.765 99.6997C114.826 99.6515 114.915 99.6192 114.996 99.5894C115.099 99.5519 115.19 99.5183 115.205 99.4618C115.222 99.3977 115.174 99.3074 115.124 99.2136C115.074 99.1188 115.021 99.0203 115.032 98.9413C115.039 98.8912 115.05 98.8453 115.065 98.8053C115.065 98.8053 115.082 98.737 115.129 98.7034C115.178 98.6698 115.204 98.6675 115.245 98.674C115.287 98.6804 115.343 98.7582 115.343 98.7582C115.422 98.8706 115.476 99.0597 115.422 99.1185C115.332 99.2139 115.485 99.3759 115.652 99.3076C115.819 99.2398 116.413 99.0072 116.586 98.9619C116.73 98.9232 116.676 98.7101 116.63 98.5286C116.618 98.4807 116.606 98.4351 116.599 98.3954C116.589 98.3395 116.586 98.2953 116.603 98.2735C116.639 98.2296 116.674 98.2361 116.711 98.2431C116.749 98.2503 116.789 98.2578 116.835 98.2123C116.878 98.1699 116.839 98.1274 116.791 98.0744C116.737 98.0148 116.671 97.9417 116.694 97.8401C116.708 97.7755 116.839 97.7063 116.965 97.6397C117.122 97.5565 117.272 97.4773 117.177 97.4161C117.061 97.3401 116.917 97.4645 116.794 97.5711C116.736 97.6213 116.683 97.6676 116.639 97.687C116.374 97.8036 116.225 97.5728 116.195 97.3425C116.189 97.3037 116.187 97.2654 116.188 97.2283C116.19 97.1944 116.203 97.1369 116.219 97.0695C116.262 96.8901 116.322 96.6405 116.215 96.5776C116.05 96.4834 115.996 96.8002 115.964 96.9833C115.956 97.029 115.95 97.0664 115.944 97.087C115.937 97.1068 115.929 97.1273 115.921 97.1489C115.89 97.2308 115.854 97.3284 115.861 97.4621C115.867 97.5681 115.901 97.6976 115.988 97.8607C116.063 97.9985 116.069 98.3342 116.01 98.5974C115.971 98.7699 115.905 98.9118 115.81 98.9454C115.666 98.9978 115.578 98.8759 115.508 98.7246C115.508 98.7246 115.429 98.5638 115.386 98.4737C115.384 98.4684 115.381 98.4629 115.378 98.4573C115.336 98.3693 115.286 98.2636 115.225 98.2735C115.151 98.2859 115.049 98.5126 115.008 98.6056C114.999 98.6253 114.991 98.6471 114.984 98.6695C114.963 98.7285 114.94 98.7915 114.894 98.8282C114.784 98.8424 114.673 98.8553 114.562 98.8642C114.376 98.8783 114.188 98.8859 113.999 98.8859C113.941 98.8859 113.883 98.8842 113.825 98.8824C113.823 98.8941 113.798 98.8983 113.775 98.9023C113.752 98.9061 113.731 98.9097 113.732 98.9195C113.748 98.9803 113.759 99.043 113.77 99.1034C113.787 99.2002 113.803 99.2912 113.839 99.3594C113.889 99.4541 113.955 99.5421 114.018 99.6251C114.13 99.7744 114.23 99.9072 114.201 100.032C114.167 100.18 113.694 100.317 113.435 100.315C113.35 100.313 113.289 100.297 113.272 100.262C113.229 100.173 113.301 100.005 113.368 99.8516C113.408 99.7589 113.445 99.6718 113.454 99.6108C113.466 99.5231 113.385 99.2976 113.385 99.2976C113.363 99.208 113.339 99.1416 113.319 99.0874C113.29 99.0056 113.271 98.9517 113.283 98.8883C113.288 98.861 113.259 98.8539 113.231 98.8466C113.225 98.845 113.218 98.8435 113.213 98.8418C111.757 98.6822 110.433 98.0845 109.376 97.183C109.372 97.1865 109.369 97.1903 109.366 97.194C109.364 97.1958 109.362 97.1977 109.361 97.1994L105.595 100.963C106.644 101.923 107.838 102.689 109.148 103.243C110.102 103.646 111.093 103.925 112.111 104.08C112.212 104.019 112.282 103.963 112.354 103.907C112.36 103.902 112.366 103.897 112.373 103.892C112.4 103.87 112.438 103.825 112.483 103.772C112.634 103.591 112.87 103.311 113.079 103.468C113.193 103.554 113.313 103.587 113.435 103.589C113.64 103.591 113.85 103.502 114.04 103.421ZM106.631 109.199C108.792 110.112 111.078 110.608 113.435 110.676V110.072C113.384 110.072 113.329 110.072 113.269 110.073C112.928 110.08 111.509 110.08 111.254 109.905C111.149 109.833 111.04 109.76 110.932 109.689C110.496 109.399 110.078 109.122 110.021 108.894C109.962 108.659 109.78 108.452 109.603 108.249C109.4 108.017 109.202 107.791 109.202 107.539C109.202 107.299 109.353 107.133 109.499 106.973C109.673 106.781 109.84 106.598 109.734 106.309C109.579 105.885 110.111 105.24 110.674 105.022C110.711 105.008 110.742 104.985 110.769 104.962C108.503 104.41 106.458 103.29 104.797 101.761L101.019 105.536C102.665 107.088 104.55 108.319 106.631 109.199ZM104.114 115.154C107.072 116.404 110.205 117.072 113.435 117.142V111.804C108.788 111.677 104.537 109.968 101.198 107.199C101.249 107.297 101.296 107.364 101.332 107.416C101.348 107.44 101.363 107.461 101.374 107.479C101.425 107.568 101.505 107.677 101.592 107.796C101.899 108.217 102.301 108.767 101.9 109.021C101.58 109.223 101.104 109.172 100.718 109.131C100.588 109.117 100.468 109.104 100.368 109.103C100.123 109.099 99.8158 109.303 99.5273 109.494C99.3004 109.644 99.0849 109.787 98.9202 109.815C98.443 109.896 98.169 109.86 97.723 109.68C97.66 109.654 97.4166 109.505 97.191 109.362L96.4445 110.108C98.6851 112.252 101.263 113.949 104.114 115.154ZM101.597 121.109C105.352 122.697 109.332 123.536 113.435 123.606V118.269C106.536 118.126 100.285 115.35 95.6467 110.906L91.8712 114.679C93.2045 115.965 94.6528 117.139 96.1846 118.173C97.888 119.323 99.7091 120.312 101.597 121.109ZM84.6396 104.162C85.4379 106.048 86.426 107.868 87.5772 109.571C88.6118 111.102 89.7867 112.549 91.0735 113.882L94.849 110.108C94.1066 109.334 93.4108 108.515 92.7662 107.656C92.4899 107.545 92.2106 107.392 92.0173 107.153C91.8748 106.975 91.7638 106.759 91.6712 106.579C91.5646 106.371 91.4824 106.211 91.4046 106.211C91.3451 106.212 91.3319 106.27 91.3156 106.343C91.2916 106.45 91.2607 106.587 91.067 106.615C90.6536 106.675 90.0836 105.726 89.8088 105.269C89.7879 105.234 89.7686 105.202 89.7513 105.174C89.6077 104.938 89.418 104.819 89.2352 104.704C89.0505 104.587 88.8728 104.476 88.7562 104.253C88.7488 104.239 88.7402 104.221 88.7306 104.202C88.6536 104.046 88.5117 103.759 88.3791 103.965C88.2332 104.199 87.8765 103.852 87.5658 103.55C87.3534 103.343 87.1626 103.157 87.0752 103.192C86.9499 103.241 86.9582 103.346 86.9663 103.448C86.9725 103.525 86.9785 103.601 86.925 103.649C86.7993 103.76 86.5468 103.496 86.2962 103.234C86.0651 102.992 85.8355 102.751 85.7083 102.809C85.4591 102.922 85.402 103.073 85.3872 103.384C85.3813 103.533 85.4625 103.789 85.5385 104.028C85.6283 104.311 85.7109 104.571 85.6347 104.606C85.4338 104.697 84.408 102.086 84.6313 101.967C84.6918 101.935 84.7186 101.961 84.7459 101.988C84.7756 102.016 84.8057 102.046 84.8799 102.002C84.9655 101.95 84.9162 101.867 84.8468 101.751C84.7973 101.668 84.7376 101.568 84.7097 101.45C84.6773 101.313 84.605 101.238 84.5345 101.164C84.4523 101.079 84.3726 100.996 84.3609 100.821C84.3491 100.629 84.5055 100.589 84.6347 100.555C84.7246 100.532 84.8014 100.512 84.7992 100.447C84.7933 100.288 84.8358 100.107 84.9665 99.9942C85.0163 99.9513 85.0874 99.9368 85.1635 99.9213C85.3224 99.8888 85.5029 99.852 85.5551 99.5425C85.6211 99.1515 85.8185 99.5137 85.8592 99.8046C85.9063 100.141 86.7683 100.226 86.8101 99.9953C86.8233 99.9187 86.7277 99.8836 86.6333 99.8489C86.547 99.8173 86.4619 99.786 86.4619 99.7239C86.4615 99.5546 86.6815 99.6111 86.9243 99.6734C87.0379 99.7025 87.1564 99.7329 87.2597 99.7421C87.3051 99.7459 87.3622 99.725 87.4295 99.7003C87.5715 99.6481 87.7589 99.5794 87.9773 99.6921C88.0388 99.7241 88.0948 99.7542 88.1468 99.7823C88.3909 99.9139 88.5479 99.9985 88.7756 99.9995H88.7792C87.9885 97.5781 87.5366 95.0024 87.4812 92.3302H82.1414C82.2121 96.4304 83.0511 100.408 84.6396 104.162ZM87.5772 73.9625C86.426 75.6643 85.4379 77.4844 84.6396 79.3711C83.0511 83.1245 82.2121 87.1023 82.1414 91.2025H87.4812C87.625 84.3081 90.4024 78.0603 94.849 73.4243L91.0735 69.6508C89.7867 70.9834 88.6118 72.4314 87.5772 73.9625ZM101.597 62.4232C99.7091 63.2211 97.888 64.2092 96.1846 65.3592C94.6528 66.3933 93.2045 67.5675 91.8712 68.8535L95.6467 72.6269C100.285 68.1828 106.536 65.4069 113.435 65.2633V59.9264C109.332 59.9971 105.352 60.8356 101.597 62.4232ZM111.592 85.0648C112.175 84.8558 112.793 84.7192 113.436 84.6685C113.435 84.6615 113.435 84.6544 113.435 84.6467V79.324C111.951 79.3894 110.512 79.7133 109.148 80.2892C107.838 80.8439 106.644 81.6094 105.595 82.5698L109.361 86.3332C109.364 86.3367 109.367 86.3404 109.371 86.3442C109.372 86.3462 109.374 86.3482 109.376 86.3503C109.874 85.9246 110.433 85.5671 111.037 85.2909C111.077 85.2503 111.113 85.205 111.142 85.1473C111.347 84.7356 111.951 84.2852 111.997 84.3558C112.014 84.3825 111.934 84.477 111.826 84.6045C111.715 84.7355 111.574 84.9015 111.479 85.0648C111.479 85.0648 111.547 85.0542 111.592 85.0648ZM108.557 93.1597C108.562 93.1438 108.567 93.1288 108.573 93.1133C108.577 93.1045 108.58 93.0951 108.583 93.0869C108.591 93.0692 108.598 93.0527 108.606 93.0374C108.608 93.0324 108.611 93.0272 108.613 93.0223C108.614 93.0202 108.615 93.0181 108.616 93.0162C108.628 92.9956 108.641 92.9756 108.654 92.9591C108.7 92.9008 108.762 92.8896 108.834 92.8996C108.888 92.9071 108.947 92.9261 109.009 92.9461C109.093 92.9732 109.183 93.0021 109.27 93.0062C109.381 93.0121 109.489 92.9797 109.583 92.8584C109.626 92.8036 109.665 92.7406 109.693 92.6794C109.724 92.6175 109.742 92.5569 109.744 92.5074C109.744 92.4833 109.74 92.4609 109.732 92.4426C109.705 92.3885 109.632 92.3708 109.489 92.4203L109.477 92.4243C109.451 92.4329 109.426 92.4413 109.401 92.4479C109.341 92.4644 109.283 92.4756 109.227 92.478C109.198 92.4791 109.171 92.478 109.146 92.4733C109.066 92.4621 108.996 92.4273 108.943 92.3555C108.927 92.3313 108.911 92.3037 108.898 92.2713C108.882 92.2289 108.862 92.1924 108.839 92.1606C108.761 92.0478 108.651 91.9836 108.535 91.9153C108.517 91.9051 108.5 91.8949 108.482 91.8844C108.414 91.8438 108.344 91.8008 108.276 91.7419C108.244 91.7136 108.211 91.6818 108.18 91.6453C108.155 91.6165 108.13 91.5894 108.105 91.5629C108.095 91.5529 108.086 91.5435 108.075 91.5352C108.059 91.5187 108.043 91.5028 108.025 91.4881C108.021 91.4834 108.015 91.4793 108.011 91.4751C108.007 91.4721 108.004 91.4689 108 91.4657C107.996 91.4622 107.992 91.4588 107.988 91.4557L107.945 91.4216C107.929 91.4092 107.915 91.3998 107.9 91.3886C107.888 91.3809 107.875 91.3721 107.861 91.3644C107.845 91.3538 107.828 91.3432 107.81 91.3344C107.8 91.3291 107.789 91.3238 107.778 91.3179C107.759 91.3091 107.739 91.3008 107.72 91.2926C107.715 91.2905 107.71 91.289 107.704 91.2875C107.701 91.2865 107.697 91.2855 107.694 91.2844L107.686 91.2817C107.666 91.2754 107.647 91.269 107.628 91.2649C107.626 91.2644 107.623 91.2641 107.621 91.2638C107.619 91.2635 107.617 91.2632 107.615 91.2626C107.491 91.2396 107.363 91.2579 107.236 91.3338C107.19 91.3615 107.145 91.3962 107.099 91.4404C107.097 91.4416 107.095 91.4439 107.092 91.4463L107.092 91.4463C107.066 91.4722 107.038 91.5016 107.012 91.5352L107.01 91.5368C107.008 91.5396 107.006 91.5421 107.003 91.5446C106.977 91.5794 106.95 91.6141 106.924 91.6553C106.923 91.6589 106.92 91.6612 106.917 91.6648C106.903 91.6865 106.89 91.7095 106.876 91.7331C106.868 91.7466 106.86 91.7604 106.852 91.7746C106.847 91.7832 106.843 91.7919 106.838 91.8008C106.783 91.9015 106.73 92.0151 106.679 92.15C106.654 92.2148 106.629 92.2748 106.604 92.3302C106.387 92.8058 106.162 92.9338 106.018 93.0158C105.903 93.0811 105.84 93.1172 105.873 93.2765C105.881 93.3212 105.997 93.3518 106.164 93.3654C106.231 93.3713 106.307 93.3742 106.387 93.3742C106.467 93.3742 106.554 93.3724 106.639 93.3666C106.726 93.3619 106.815 93.3542 106.901 93.3436C106.944 93.3377 106.985 93.3312 107.026 93.3248L107.026 93.3248C107.034 93.3236 107.04 93.3224 107.047 93.3218C107.065 93.3189 107.082 93.3159 107.099 93.3124C107.122 93.3077 107.145 93.3041 107.169 93.2983C107.188 93.2935 107.209 93.2894 107.229 93.2847C107.246 93.281 107.262 93.2763 107.277 93.2717C107.286 93.2691 107.295 93.2665 107.304 93.2641C107.312 93.2615 107.321 93.2591 107.329 93.2568C107.336 93.2549 107.342 93.253 107.348 93.2511C107.386 93.2388 107.422 93.2258 107.453 93.2111C107.508 93.1864 107.564 93.1634 107.619 93.1451C107.621 93.1451 107.622 93.1451 107.624 93.144C107.677 93.1263 107.73 93.1133 107.781 93.1045C107.888 93.0845 107.986 93.0857 108.063 93.1133C108.089 93.1222 108.127 93.1381 108.168 93.1628C108.218 93.1928 108.272 93.2364 108.318 93.3018C108.318 93.3018 108.433 93.4932 108.468 93.6427C108.47 93.6298 108.472 93.6186 108.473 93.6103C108.474 93.6009 108.474 93.5921 108.475 93.585C108.476 93.5743 108.477 93.5637 108.479 93.5532C108.48 93.5394 108.482 93.5257 108.483 93.512C108.485 93.502 108.486 93.4914 108.487 93.4808L108.494 93.4349C108.496 93.426 108.497 93.4184 108.498 93.4095C108.499 93.4042 108.5 93.3989 108.501 93.3937C108.501 93.3897 108.502 93.3857 108.503 93.3819C108.509 93.3489 108.515 93.3171 108.523 93.2859V93.2835C108.529 93.2541 108.537 93.2246 108.546 93.197C108.547 93.1912 108.549 93.1861 108.55 93.1812C108.551 93.1777 108.552 93.1742 108.553 93.1705C108.555 93.1668 108.556 93.1632 108.557 93.1597ZM101.754 94.0956C101.917 94.9577 102.171 95.7997 102.515 96.6141C103.07 97.9243 103.836 99.1168 104.797 100.166L108.563 96.4021C108.565 96.3995 108.568 96.3971 108.571 96.3946C108.574 96.3921 108.577 96.3895 108.579 96.3868C108.271 96.0253 107.998 95.6319 107.766 95.2132C107.748 95.2231 107.729 95.2308 107.71 95.2387C107.657 95.2602 107.602 95.2824 107.562 95.3528C107.529 95.4103 107.524 95.5241 107.519 95.6556C107.51 95.8699 107.499 96.1313 107.362 96.2726C107.171 96.4701 106.766 96.1138 106.445 95.8322C106.286 95.6922 106.148 95.5707 106.067 95.5447C105.738 95.4417 105.58 95.8033 105.598 95.9081C105.642 96.1801 105.587 96.2897 105.468 96.3132C105.349 96.3362 104.75 95.9293 105.018 95.8268C105.305 95.7181 104.993 95.481 104.837 95.3627C104.824 95.3528 104.812 95.3438 104.801 95.3357C104.695 95.2538 104.562 95.2446 104.432 95.2357C104.279 95.2252 104.131 95.215 104.039 95.0866C103.857 94.8322 103.515 94.6491 103.409 94.6191C103.404 94.6175 103.398 94.6155 103.39 94.6131C103.288 94.5814 102.969 94.4823 102.755 94.5949C102.591 94.683 102.416 94.5087 102.283 94.3771C102.27 94.3636 102.256 94.3505 102.244 94.3382C102.169 94.2652 102.076 94.188 101.976 94.1474C101.932 94.1297 101.848 94.1097 101.754 94.0956ZM95.6467 109.311L96.296 108.662C96.2795 108.655 96.2628 108.649 96.2465 108.643C96.2146 108.631 96.1837 108.62 96.1564 108.603C95.7769 108.364 95.4134 108.256 95.1848 108.355C95.1253 108.38 94.9733 108.401 94.826 108.412C95.0917 108.717 95.3651 109.017 95.6467 109.311ZM96.4445 73.4243L100.221 77.1988C103.687 73.923 108.322 71.8691 113.435 71.7283V66.3909C110.205 66.4604 107.072 67.1282 104.114 68.3789C101.263 69.5837 98.6851 71.2802 96.4445 73.4243ZM101.019 77.9967L104.797 81.7719C107.089 79.6626 110.107 78.3318 113.435 78.1958V72.8566C111.078 72.9249 108.792 73.4207 106.631 74.334C104.55 75.2138 102.665 76.4451 101.019 77.9967ZM108.163 86.7313L104.797 83.3671C104.039 84.1951 103.402 85.1125 102.895 86.1065C103.029 86.0835 103.217 86.0641 103.217 86.0641C103.268 86.0496 103.315 86.004 103.355 85.9646C103.38 85.9403 103.403 85.9183 103.422 85.9075C104.035 85.5571 104.81 85.6413 105.153 85.7897C105.508 85.9442 105.941 86.2908 106.232 86.5231C106.303 86.5804 106.366 86.6307 106.417 86.6695C106.472 86.7113 106.513 86.6942 106.602 86.6569C106.694 86.6184 106.838 86.5584 107.101 86.5187C107.211 86.5026 107.278 86.5506 107.358 86.6076C107.435 86.6631 107.525 86.7272 107.677 86.749C107.793 86.7654 107.963 86.7523 108.061 86.7447C108.069 86.7441 108.076 86.7436 108.083 86.7431C108.109 86.7372 108.136 86.7331 108.163 86.7313ZM100.421 91.2025C100.436 90.8345 100.466 90.47 100.51 90.1102C100.489 90.0854 100.463 90.0619 100.43 90.0389C100.197 89.9176 99.9702 89.8817 99.7327 89.8575C99.3368 89.8169 98.9438 89.9624 98.7317 90.3063C98.5826 90.5442 98.5767 90.7603 98.6268 91.0111C98.6489 91.0475 98.6634 91.0658 98.6736 91.0787C98.689 91.0983 98.6943 91.1049 98.701 91.143C98.704 91.1589 98.7099 91.1795 98.7175 91.2025H100.421ZM101.825 93.3371C101.806 93.3217 101.789 93.3076 101.785 93.2953C101.769 93.2371 101.82 93.2075 101.872 93.1764C101.889 93.1667 101.906 93.1567 101.921 93.1457C101.984 93.0998 101.956 93.0291 101.939 92.9891C101.934 92.9781 101.93 92.9632 101.926 92.9457C101.914 92.8989 101.898 92.8342 101.848 92.7801C101.801 92.7294 101.756 92.5956 101.722 92.4926C101.705 92.4437 101.691 92.4018 101.681 92.379C101.673 92.3643 101.669 92.3478 101.666 92.3302H101.55C101.566 92.7017 101.599 93.0704 101.648 93.4355C101.748 93.4714 101.827 93.4773 101.869 93.4307C101.898 93.3973 101.859 93.3651 101.825 93.3371ZM101.389 86.6921C100.95 86.821 100.539 86.9415 100.52 86.8767C100.482 86.7414 100.666 86.6883 100.884 86.6254C101.057 86.5753 101.252 86.5189 101.374 86.4098C101.41 86.375 101.493 86.3285 101.558 86.2944C102.165 84.9176 102.993 83.661 103.999 82.5692L100.222 78.7941C98.6692 80.4387 97.4372 82.3225 96.557 84.4029C95.6432 86.5623 95.1471 88.8471 95.0787 91.2025H97.8214C97.842 91.1542 97.8656 91.1048 97.9021 91.0506C98.0942 90.762 98.1339 90.3803 98.1694 90.0383C98.1913 89.8276 98.2116 89.632 98.2651 89.4824C98.3903 89.1358 98.5887 88.8156 98.7825 88.5029C98.7974 88.4788 98.8123 88.4547 98.8271 88.4307C99.0116 88.1345 99.2207 87.8007 99.606 87.7983C100.157 87.7955 100.428 87.6004 100.705 87.401C100.838 87.305 100.973 87.2081 101.141 87.1311C101.172 87.117 101.204 87.1035 101.237 87.0899C101.388 87.0287 101.562 86.9737 101.732 86.9202C102.15 86.7878 102.538 86.6653 102.468 86.4846C102.431 86.388 101.892 86.5452 101.39 86.6918L101.389 86.6921ZM88.6095 91.2025H93.9493C94.0907 86.0924 96.1452 81.4604 99.4228 77.9962L95.6467 74.2216C93.5015 76.461 91.804 79.0373 90.598 81.8867C89.3471 84.8434 88.679 87.975 88.6095 91.2025ZM90.6599 99.9586C91.0789 99.9269 91.6261 99.8854 91.8588 99.705C92.1341 99.4929 92.116 98.9783 92.0979 98.4642C92.0834 98.0494 92.0688 97.6349 92.2082 97.3796C92.593 96.6724 93.5539 94.9953 93.8426 94.9842C93.9992 94.978 94.0555 95.0472 94.1056 95.1087C94.1373 95.1477 94.1666 95.1837 94.2173 95.1956C94.2204 95.1958 94.2232 95.196 94.2259 95.1961C94.2288 95.1963 94.2316 95.1964 94.2344 95.1967C94.0736 94.2616 93.9764 93.3047 93.9493 92.3302H88.6095C88.666 94.9718 89.1244 97.5486 89.9746 100.018C90.0931 100.015 90.1932 100.009 90.2586 99.9983C90.3566 99.9816 90.4988 99.9708 90.6599 99.9586ZM95.7563 95.7361C96.3696 95.9151 97.244 95.5076 96.544 94.7068C96.2891 94.4143 96.6228 93.6556 96.7633 93.3362C96.7849 93.2872 96.8019 93.2485 96.8115 93.2235C96.847 93.1331 96.9408 93.0585 97.0459 92.9748C97.1729 92.8738 97.3166 92.7595 97.3942 92.5881C97.425 92.5208 97.4382 92.4354 97.4529 92.3397L97.4543 92.3302H95.0787C95.1117 93.462 95.2443 94.5773 95.4735 95.6708C95.4982 95.6765 95.5233 95.6824 95.5495 95.6886C95.6097 95.7029 95.6759 95.7185 95.7563 95.7361ZM99.52 103.219C99.5212 103.318 99.5171 103.418 99.4959 103.511C99.5025 103.524 99.5156 103.524 99.5293 103.524C99.5533 103.524 99.5791 103.523 99.5742 103.591C99.5718 103.628 99.5629 103.665 99.5536 103.705C99.536 103.779 99.5169 103.86 99.5365 103.954L99.5418 103.978C99.7616 104.236 99.9872 104.491 100.222 104.739L103.999 100.963C102.298 99.1168 101.103 96.7984 100.632 94.2263C100.613 94.2149 100.608 94.1878 100.604 94.1619C100.6 94.1314 100.595 94.1026 100.566 94.1032L100.565 94.1033C100.454 94.1062 100.378 94.1082 100.319 94.0055C100.246 93.8795 100.342 93.7187 100.47 93.6686C100.496 93.6586 100.518 93.651 100.539 93.6445C100.479 93.2129 100.439 92.7742 100.421 92.3302H99.2466C99.2083 92.352 99.1671 92.3696 99.13 92.3726C99.0504 92.3779 98.7476 92.379 98.5974 92.3302H98.1095C98.083 92.3885 98.073 92.4685 98.0877 92.5363C98.0929 92.6181 98.1034 92.7062 98.114 92.7958C98.1526 93.1207 98.1937 93.4666 97.997 93.6156C97.8641 93.7169 97.6854 93.6868 97.5254 93.6598C97.4378 93.645 97.3558 93.6312 97.2899 93.6404C96.8327 93.7016 96.7367 94.2263 96.8575 94.6014C96.8616 94.6143 96.8656 94.6271 96.8696 94.6398C96.9437 94.8733 97.0025 95.0588 96.9606 95.3169C96.9537 95.3602 96.944 95.4019 96.9346 95.4423C96.8884 95.6403 96.8494 95.8077 97.1851 95.9852C97.5557 96.179 98.1549 96.9392 98.1054 97.0699C98.0777 97.1431 97.9924 97.123 97.9029 97.1018C97.7866 97.0744 97.6632 97.0453 97.6505 97.2177C97.6453 97.2837 97.7113 97.2966 97.7975 97.3134C97.9558 97.3443 98.1822 97.3884 98.1619 97.7989C98.1431 98.1675 98.2356 98.5721 98.3422 98.8259C98.393 98.9473 98.4455 99.0592 98.496 99.1668C98.6647 99.5263 98.8109 99.8379 98.7941 100.296C98.7909 100.386 98.7854 100.478 98.7798 100.57C98.7547 100.983 98.7288 101.411 98.9055 101.791C98.9746 101.939 99.0598 102.079 99.1446 102.217C99.3329 102.526 99.5188 102.83 99.52 103.219ZM113.999 86.4433C114.208 86.2932 114.197 86.1448 114.155 86.0553C114.138 86.0184 114.093 85.9892 114.047 85.959C113.981 85.9158 113.911 85.8704 113.913 85.7974C113.913 85.7912 113.915 85.7854 113.916 85.7796C113.917 85.7783 113.917 85.7769 113.917 85.7756C113.364 85.7826 112.828 85.8657 112.32 86.0141C112.321 86.0147 112.323 86.0158 112.325 86.017C112.368 86.0476 112.406 86.1377 112.383 86.2266C112.378 86.2467 112.347 86.2713 112.311 86.2996C112.248 86.3503 112.169 86.4129 112.196 86.4828C112.236 86.5833 112.35 86.5518 112.47 86.5187C112.622 86.4767 112.783 86.4323 112.814 86.6512C112.837 86.8038 112.7 86.8139 112.575 86.8232C112.468 86.8311 112.371 86.8384 112.392 86.935C112.409 87.0106 112.491 87.0378 112.576 87.0662C112.679 87.1008 112.787 87.137 112.792 87.2636C112.8 87.475 112.578 87.8902 112.408 87.9985C112.323 88.0525 112.104 88.1084 111.855 88.1717C111.433 88.2791 110.928 88.4078 110.855 88.5844C110.754 88.8306 110.649 89.052 110.459 89.2534C110.374 89.3422 110.161 89.4914 109.939 89.647C109.619 89.8707 109.281 90.1075 109.28 90.1961C109.274 90.5495 109.746 90.099 109.877 89.9606C110 89.8293 110.152 89.7765 110.32 89.7178C110.434 89.6779 110.557 89.6352 110.683 89.5631C111.113 89.3182 111.278 90.1738 110.818 90.2044C110.7 90.2128 110.591 90.3518 110.471 90.5031C110.298 90.7229 110.104 90.9686 109.837 90.8769C109.816 90.8696 109.788 90.8568 109.756 90.8422C109.614 90.7776 109.39 90.6762 109.333 90.8433C109.288 90.9769 109.549 91.0415 109.812 91.1068C109.979 91.1482 110.146 91.1899 110.237 91.2496C110.66 91.5289 110.252 91.5952 109.922 91.649C109.788 91.6707 109.667 91.6904 109.619 91.7213C109.454 91.8267 109.535 92.0552 109.761 91.9627C109.796 91.9482 109.833 91.9301 109.871 91.9115C110.07 91.8143 110.297 91.7035 110.411 92.014C110.594 92.5151 109.586 94.3429 109.293 94.1503C109.196 94.0874 109.123 94.1751 109.054 94.258C109.009 94.3125 108.965 94.3649 108.918 94.3712C108.883 94.3758 108.854 94.3809 108.828 94.3854C108.764 94.3965 108.719 94.4042 108.663 94.3929C108.641 94.3882 108.619 94.38 108.599 94.3694C108.845 94.8764 109.161 95.3439 109.533 95.7597C109.532 95.7583 109.532 95.7569 109.531 95.7555C109.529 95.7518 109.527 95.7483 109.525 95.7444C109.51 95.7049 109.527 95.6664 109.541 95.6327C109.551 95.6092 109.56 95.5881 109.557 95.5707C109.556 95.5676 109.555 95.5631 109.553 95.5573C109.544 95.5296 109.525 95.4732 109.56 95.4128C109.589 95.364 110.072 94.6226 110.204 94.6202C110.33 94.6163 110.343 94.5483 110.359 94.4642C110.367 94.423 110.376 94.378 110.399 94.3346C110.439 94.2617 110.507 94.2569 110.571 94.2525C110.646 94.2472 110.716 94.2424 110.724 94.1244C110.731 94.0224 110.858 93.8995 110.996 93.7649C111.153 93.6128 111.325 93.4457 111.359 93.2765C111.374 93.1968 111.338 93.1174 111.304 93.041C111.264 92.9524 111.226 92.8677 111.272 92.7912C111.376 92.6187 111.45 92.5922 111.562 92.5545C111.611 92.5376 111.689 92.5792 111.769 92.6212C111.87 92.6744 111.972 92.7284 112.017 92.6652C112.097 92.5516 112.489 92.6387 112.788 92.8283C112.839 92.8602 112.907 92.8668 112.981 92.8739C113.107 92.8861 113.251 92.9 113.354 93.0462C113.51 93.2656 113.446 93.3468 113.404 93.3993C113.386 93.4228 113.372 93.4406 113.384 93.4625C113.404 93.4982 113.439 93.4872 113.477 93.4755C113.513 93.4642 113.552 93.4521 113.582 93.4808C113.641 93.5392 113.513 93.6636 113.37 93.8025C113.21 93.9575 113.031 94.1306 113.074 94.2504C113.155 94.4777 112.469 95.6013 112.28 95.7791C112.112 95.9314 111.874 95.8752 111.681 95.8296C111.576 95.8047 111.484 95.7831 111.425 95.8003C111.363 95.818 111.318 95.8479 111.274 95.8767C111.19 95.9322 111.112 95.984 110.928 95.9387C110.717 95.8886 110.357 96.0812 110.171 96.1812L110.158 96.1878C110.115 96.2108 110.069 96.2302 110.022 96.2467C110.868 96.9975 111.927 97.5133 113.096 97.6906C113.115 97.6664 113.138 97.644 113.165 97.6281C113.356 97.5157 113.534 97.647 113.615 97.7106C113.629 97.7224 113.639 97.7347 113.648 97.7477C113.764 97.7547 113.881 97.7583 113.999 97.7583C114.302 97.7583 114.6 97.7353 114.891 97.6917C114.901 97.6555 114.904 97.6215 114.907 97.5869C114.912 97.5196 114.917 97.4498 114.977 97.3561C115.149 97.136 115.174 96.9393 115.207 96.6752C115.21 96.6524 115.213 96.6291 115.217 96.6053C115.224 96.5543 115.226 96.4986 115.228 96.4416C115.233 96.3164 115.238 96.1853 115.297 96.0853C115.371 95.9617 115.84 95.3852 116.028 95.3928C116.089 95.3952 116.142 95.4167 116.198 95.4389C116.292 95.4765 116.392 95.5162 116.541 95.47C117 95.3251 117.285 95.4476 117.289 95.646C117.293 95.8027 117.106 95.8449 116.948 95.8806C116.828 95.9078 116.724 95.9312 116.735 95.9988C116.75 96.1071 117.174 96.2714 117.313 96.113C117.573 95.8197 117.535 95.4358 117.467 95.3516C117.283 95.1196 117.295 95.0236 117.559 95.1137C117.651 95.1457 117.691 94.9544 117.736 94.7373C117.771 94.5703 117.809 94.388 117.876 94.2805C118.038 94.0265 117.723 94.1036 117.453 94.1694C117.371 94.1895 117.293 94.2086 117.234 94.2169C116.997 94.2493 116.801 93.7446 116.796 93.5668C116.793 93.5106 116.88 93.5911 116.997 93.7C117.147 93.8388 117.346 94.0239 117.474 94.0308C117.733 94.0437 118.039 93.7434 118.043 93.5226C118.045 93.4136 117.924 93.3513 117.791 93.2834C117.657 93.2145 117.511 93.1399 117.473 93.005C117.452 92.9314 117.554 92.9314 117.657 92.9314C117.759 92.9314 117.861 92.9314 117.844 92.8596C117.838 92.8307 117.837 92.7924 117.835 92.7491C117.831 92.6034 117.825 92.4007 117.608 92.3072C117.463 92.2452 117.323 91.9752 117.192 91.7201C117.069 91.4812 116.952 91.2554 116.844 91.2255C116.695 91.1852 116.566 91.3242 116.459 91.4391C116.422 91.4788 116.387 91.5156 116.356 91.5411C116.235 91.6383 116.041 91.4693 116.142 91.3756C116.157 91.3613 116.175 91.3453 116.194 91.3278C116.355 91.1803 116.629 90.9287 116.691 90.7255C116.744 90.5529 116.874 90.5407 116.991 90.5296C117.133 90.5162 117.258 90.5043 117.21 90.2138C117.162 89.9169 117.008 89.8026 116.902 89.7235C116.802 89.6492 116.743 89.6059 116.854 89.4713C117.088 89.1898 116.913 88.7299 116.438 88.8212C116.219 88.8636 115.988 88.5067 115.965 88.1981C115.958 88.1157 115.84 88.0796 115.722 88.0437C115.598 88.0058 115.474 87.968 115.483 87.876C115.522 87.5086 114.972 87.4703 114.636 87.4956C114.3 87.5198 113.65 87.0022 113.577 86.8756C113.553 86.833 113.484 86.8315 113.41 86.8299C113.262 86.8267 113.09 86.8229 113.192 86.4946C113.285 86.1989 113.492 86.2959 113.683 86.3856C113.806 86.4433 113.923 86.498 113.999 86.4433ZM115.882 86.0777C115.882 86.0782 115.883 86.0794 115.883 86.08C115.887 86.1011 115.885 86.1282 115.883 86.1531C115.88 86.1866 115.878 86.2162 115.892 86.2219C115.9 86.2252 115.91 86.2258 115.921 86.2264C115.945 86.2277 115.975 86.2294 116.004 86.2555C116.024 86.2735 116.027 86.2989 116.029 86.3226C116.032 86.351 116.035 86.377 116.067 86.385C116.094 86.3917 116.109 86.3798 116.124 86.3675C116.142 86.3529 116.161 86.3378 116.201 86.3538C116.236 86.3676 116.249 86.3846 116.26 86.3992C116.273 86.4157 116.284 86.4293 116.321 86.4322C116.369 86.4357 116.582 86.4369 116.731 86.4339C116.46 86.2944 116.176 86.1748 115.882 86.0777ZM114.563 79.324V84.6467C114.563 84.6506 114.563 84.6544 114.562 84.6581C114.562 84.6616 114.562 84.6651 114.562 84.6685C115.102 84.7109 115.625 84.8146 116.124 84.9706C116.125 84.9612 116.123 84.95 116.118 84.93C116.083 84.7863 116.469 84.5078 116.768 84.3299C116.823 84.2972 116.876 84.2596 116.926 84.2246C117.131 84.0798 117.275 83.9781 117.247 84.4389C117.224 84.8187 117.096 85.0854 116.9 85.2397C116.896 85.2433 116.892 85.2471 116.889 85.2508C116.887 85.2526 116.885 85.2545 116.883 85.2562C117.517 85.5371 118.102 85.9063 118.622 86.3503C118.624 86.3483 118.625 86.3463 118.627 86.3443C118.63 86.3404 118.633 86.3367 118.637 86.3332L119.036 85.9352C118.994 85.891 118.965 85.8268 118.986 85.7285C119.023 85.5436 119.344 85.1166 119.805 84.9158C119.936 84.8495 120 84.8558 120.068 84.8625C120.08 84.8637 120.093 84.865 120.106 84.8658L121.619 83.3536C121.531 83.2941 121.419 83.29 121.375 83.303C121.303 83.3228 121.215 83.3777 121.122 83.4356C120.948 83.5444 120.756 83.6641 120.621 83.585C120.388 83.4496 121.33 82.6635 121.745 82.8207C121.751 82.8231 121.759 82.8263 121.768 82.8299C121.835 82.8572 121.961 82.9089 122.094 82.8372C122.121 82.8228 122.154 82.7664 122.188 82.7081C122.226 82.6419 122.265 82.5735 122.3 82.5622C122.334 82.5504 122.364 82.5504 122.389 82.5575C121.343 81.6035 120.154 80.8409 118.849 80.2892C117.486 79.7133 116.047 79.3894 114.563 79.324ZM121.366 74.334C119.206 73.4207 116.919 72.9249 114.563 72.8566V78.1958C117.89 78.3318 120.909 79.6626 123.201 81.7719L126.978 77.9967C125.333 76.4451 123.447 75.2138 121.366 74.334ZM123.884 68.3789C120.926 67.1282 117.792 66.4604 114.563 66.3909V71.7283C119.006 71.8508 123.088 73.4184 126.356 75.9764C126.351 75.9404 126.348 75.9098 126.346 75.8892C126.343 75.8335 126.32 75.8361 126.284 75.8405C126.247 75.8449 126.195 75.8511 126.133 75.7974C126.07 75.7142 126.007 75.6305 125.945 75.5481C125.65 75.1566 125.376 74.7929 125.236 74.6426C125.097 74.4947 124.786 74.3314 124.496 74.1793C124.142 73.993 123.819 73.8236 123.884 73.7199C123.942 73.6242 124.234 73.7863 124.532 73.9518C124.824 74.1143 125.122 74.2801 125.211 74.2086C125.357 74.092 125.074 73.628 124.889 73.3244C124.798 73.1756 124.731 73.0653 124.749 73.0533C124.824 73.0044 125.695 73.8447 126.122 74.5978C126.216 74.7369 126.391 74.7662 126.589 74.7994C126.769 74.8296 126.969 74.863 127.145 74.9853C127.32 75.1085 127.407 75.271 127.492 75.4314C127.566 75.5685 127.638 75.7041 127.764 75.8121C127.773 75.8194 127.8 75.8373 127.837 75.8612C127.995 75.9637 128.324 76.177 128.051 76.146C128.017 76.142 127.982 76.1207 127.947 76.0985C127.881 76.0574 127.81 76.0135 127.73 76.0724C127.652 76.1295 127.742 76.3511 127.835 76.5826C127.895 76.7306 127.957 76.8825 127.977 76.998L129.682 75.2945C129.66 75.2638 129.637 75.2232 129.613 75.1649C129.369 74.6715 128.889 74.0202 128.553 73.9383C128.273 73.8692 128.08 74.0469 127.891 74.2218C127.846 74.2628 127.802 74.3036 127.757 74.3411C127.519 74.5378 127.222 74.6037 127.184 74.4718C127.16 74.3877 127.179 74.2347 127.196 74.0896C127.21 73.9768 127.222 73.8689 127.215 73.8017C127.201 73.6942 127.148 73.5995 127.095 73.5046C127.053 73.4289 127.011 73.3531 126.988 73.2706C126.94 73.0946 126.94 72.9105 126.94 72.7343C126.94 72.4718 126.94 72.2269 126.78 72.0528C126.588 71.8428 126.437 71.5613 126.291 71.289C126.215 71.1476 126.141 71.0086 126.062 70.8833C126.025 70.8242 125.985 70.7618 125.942 70.6969C125.699 70.3229 125.4 69.8617 125.377 69.4147C125.373 69.3329 125.418 69.2328 125.497 69.1279C124.969 68.8606 124.432 68.6103 123.884 68.3789ZM133.644 87.7141C133.877 88.8453 134.015 90.0107 134.048 91.2025H139.388C139.319 87.975 138.651 84.8434 137.399 81.8867C137.317 81.6936 137.233 81.5022 137.147 81.3114C137.123 81.3549 137.099 81.4013 137.077 81.4451C137.036 81.5266 137 81.5996 136.967 81.6294C136.933 81.6574 136.895 81.6718 136.853 81.6877C136.774 81.7177 136.682 81.7528 136.571 81.8932C136.315 82.2159 135.902 81.8131 135.675 81.5317C135.583 81.4186 135.465 81.2612 135.331 81.0832C134.846 80.4391 134.158 79.5253 133.807 79.4671C133.619 79.4364 133.455 79.2986 133.288 79.1587C133.123 79.0196 132.955 78.8784 132.758 78.8382C132.365 78.7581 131.873 78.5367 131.809 78.121C131.742 77.6947 131.592 77.4732 131.149 77.4509C130.608 77.4234 130.223 77.0862 129.984 76.8775C129.921 76.8221 129.868 76.7757 129.825 76.7466L128.575 77.9962C129.466 78.9383 130.266 79.9671 130.962 81.0676C131.036 80.9799 131.141 80.9157 131.207 80.9905C131.272 81.0645 131.273 81.1485 131.275 81.2276C131.277 81.3663 131.28 81.4901 131.621 81.5193C131.955 81.5482 131.723 81.8661 131.55 82.0581C131.708 82.3437 131.86 82.6334 132.004 82.9273C132.006 82.9273 132.007 82.9272 132.008 82.9271C132.01 82.927 132.012 82.9269 132.015 82.9273C132.201 83.0115 132.342 83.1122 132.37 83.2335C132.402 83.3702 132.469 83.5169 132.532 83.6571C132.633 83.8811 132.727 84.0889 132.665 84.2145C132.651 84.2416 132.633 84.2681 132.615 84.2934C132.887 84.9688 133.122 85.6631 133.32 86.3727C133.336 86.3568 133.353 86.3415 133.369 86.3279C133.629 86.1053 133.874 86.2237 133.904 86.5947C133.935 86.9657 133.817 87.3679 133.655 87.7006C133.655 87.7006 133.652 87.7053 133.644 87.7141ZM122.943 103.015C122.705 102.931 122.34 102.803 122.039 102.718C121.742 102.633 121.505 102.589 121.508 102.669C121.513 102.821 121.421 102.805 121.332 102.79C121.276 102.78 121.22 102.77 121.191 102.803C121.169 102.827 121.324 102.924 121.564 103.051C122.157 103.366 123.269 103.867 123.5 103.905C123.537 103.912 123.578 103.921 123.626 103.932C123.868 103.986 124.266 104.076 124.89 103.952C125.135 103.904 125.293 103.934 125.418 103.977C125.454 103.989 125.488 104.002 125.52 104.015C125.603 104.048 125.677 104.077 125.763 104.074C126.034 104.064 126.228 103.762 126.396 103.501C126.415 103.472 126.433 103.443 126.452 103.415L126.457 103.406C126.473 103.382 126.488 103.359 126.504 103.337C126.814 102.895 126.9 102.684 126.95 102.562C126.983 102.483 127 102.441 127.054 102.396C127.226 102.251 127.729 103.366 127.665 104.073C127.66 104.126 127.665 104.206 127.671 104.285C127.676 104.372 127.682 104.459 127.674 104.511C127.668 104.545 127.66 104.578 127.649 104.612L127.776 104.739C129.329 103.094 130.561 101.21 131.441 99.1297C132.355 96.9704 132.851 94.6856 132.919 92.3302H128.762C128.774 92.3726 128.79 92.4191 128.811 92.4709C128.85 92.5341 128.896 92.6026 128.948 92.6801C129.077 92.8705 129.243 93.1153 129.414 93.469C129.468 93.5793 129.515 93.7075 129.563 93.836C129.687 94.172 129.813 94.5096 130.049 94.5313C130.574 94.5808 131.116 95.0165 131.13 95.3816C131.162 96.1466 128.79 96.3315 128.477 96.2331C128.215 96.1501 128.041 96.133 128.023 96.544C128.011 96.8343 127.681 96.9448 127.355 97.0543C127.157 97.1205 126.961 97.1863 126.837 97.2913C126.611 97.4822 126.508 97.7698 126.405 98.0555C126.34 98.2377 126.274 98.4192 126.178 98.5744C126.043 98.7905 125.312 99.4901 124.998 99.7445C124.965 99.7704 124.937 99.7922 124.914 99.8081C124.671 99.9778 124.337 100.079 124.071 100.159C123.712 100.267 123.478 100.338 123.76 100.489C123.895 100.561 124.094 100.615 124.283 100.644C124.589 100.69 124.868 100.672 124.806 100.558C124.691 100.345 124.867 100.326 125.001 100.499C125.105 100.631 125.478 100.373 125.471 100.133C125.47 100.105 125.468 100.075 125.466 100.044C125.454 99.8207 125.439 99.5337 125.623 99.5213C125.807 99.5096 125.996 99.3949 126.157 99.2966C126.296 99.212 126.416 99.1396 126.494 99.1556C126.687 99.1957 126.948 99.6244 126.752 100.929C126.622 101.804 126.299 102.5 126.025 102.989C125.922 103.172 125.826 103.326 125.75 103.449C125.726 103.487 125.705 103.521 125.685 103.553C125.501 103.854 125.317 103.791 125.104 103.663C125.072 103.644 125.04 103.623 125.007 103.602C124.937 103.558 124.864 103.512 124.787 103.472C124.519 103.334 124.17 103.28 123.831 103.227C123.591 103.19 123.355 103.154 123.155 103.089C123.112 103.075 123.038 103.049 122.943 103.015ZM124.586 85.4973C124.638 85.4543 124.675 85.424 124.714 85.4028C124.375 84.8328 123.991 84.2905 123.562 83.7799C123.557 83.7976 123.555 83.8198 123.553 83.842C123.549 83.8798 123.545 83.9179 123.525 83.9342C123.504 83.9511 123.46 83.9379 123.407 83.9218C123.357 83.907 123.3 83.8898 123.245 83.8912C123.193 83.8923 123.154 83.9271 123.115 83.9612C123.067 84.0039 123.02 84.0455 122.952 84.019C122.952 84.019 122.769 83.9313 122.732 83.9148C122.719 83.9095 122.694 83.9059 122.665 83.9024L121.642 84.9247C121.675 84.9706 121.713 85.0077 121.762 85.0254C121.854 85.0498 121.945 85.0513 122.04 85.053C122.179 85.0553 122.326 85.0578 122.494 85.132C122.636 85.1946 122.682 85.0193 122.735 84.8181C122.799 84.5766 122.872 84.2977 123.134 84.3482C123.625 84.4418 123.75 84.7568 123.345 84.91C123.19 84.9601 123.201 85.0479 123.212 85.1405C123.225 85.2424 123.238 85.3502 123.032 85.4199C122.805 85.4972 122.983 85.6529 123.142 85.7924C123.234 85.8728 123.32 85.9479 123.318 85.9993C123.316 86.0585 123.269 86.1064 123.227 86.1508C123.129 86.2521 123.049 86.3348 123.553 86.4905C124.03 86.6373 123.88 86.327 123.753 86.0644C123.687 85.9279 123.628 85.8043 123.665 85.7644C123.732 85.6938 123.86 85.7483 123.986 85.8017C124.114 85.856 124.24 85.9091 124.293 85.8274C124.333 85.7673 124.428 85.6248 124.522 85.5495C124.546 85.5303 124.567 85.513 124.586 85.4973ZM132.489 89.5598C132.468 89.5825 132.448 89.6049 132.434 89.6332C132.157 90.2103 132.114 89.8623 132.135 89.6114C132.153 89.3827 132.246 89.1615 132.34 88.9345C132.378 88.843 132.417 88.7505 132.451 88.6563C132.506 88.5462 132.551 88.4171 132.591 88.3023C132.595 88.2894 132.6 88.2766 132.604 88.2641C132.569 88.0774 132.532 87.8908 132.491 87.7053L132.49 87.7241C132.483 87.7923 132.461 87.8152 132.438 87.839C132.417 87.8602 132.396 87.882 132.385 87.9373C132.376 87.9803 132.379 88.0183 132.382 88.0542C132.386 88.1159 132.391 88.1714 132.335 88.2358C132.258 88.3461 132.143 88.3933 131.996 88.4543C131.931 88.4809 131.861 88.5102 131.784 88.5485C131.623 88.6307 131.47 89.0057 131.408 89.1584L131.404 89.1662C131.369 89.2548 131.25 89.2451 131.098 89.2327C130.944 89.2202 130.757 89.2048 130.587 89.2864C130.469 89.3434 130.35 89.3908 130.239 89.4349C129.797 89.6106 129.481 89.7364 129.825 90.2238C129.968 90.4252 129.785 90.4929 129.548 90.5804C129.328 90.6616 129.062 90.7599 128.968 90.9976C128.966 91.0011 128.965 91.0057 128.963 91.0111C128.954 91.0387 128.939 91.0863 128.927 91.1036C128.909 91.1243 128.88 91.1401 128.849 91.157C128.824 91.1704 128.798 91.1846 128.775 91.2025H132.919C132.899 90.5288 132.844 89.8617 132.754 89.2004C132.752 89.2061 132.749 89.2118 132.746 89.2173C132.744 89.2204 132.742 89.2234 132.741 89.2263C132.709 89.2815 132.691 89.3324 132.676 89.3746C132.647 89.458 132.629 89.5079 132.543 89.4919C132.528 89.518 132.509 89.539 132.489 89.5598ZM129.182 80.4664C129.089 80.4705 128.993 80.4658 128.975 80.4541C128.942 80.4334 128.905 80.3952 128.933 80.3339C128.953 80.2933 129.002 80.2927 129.052 80.2957C128.768 79.9235 128.468 79.5613 128.156 79.2092L128.156 79.2119C128.154 79.3311 128.153 79.4861 128.104 79.5007C128.034 79.5219 127.921 79.3458 127.864 79.2398C127.837 79.1891 127.831 79.1521 127.825 79.1161C127.818 79.077 127.812 79.0391 127.779 78.986C127.753 78.943 127.733 78.8983 127.716 78.8541L123.999 82.5692C124.657 83.2841 125.24 84.0697 125.734 84.9129C125.752 84.9117 125.772 84.9105 125.794 84.9111C126.214 84.9765 126.73 85.109 127.099 85.5836C127.167 85.671 127.267 85.7809 127.378 85.9011C127.692 86.245 128.084 86.6728 127.998 86.8962C127.928 87.0811 128.085 87.3107 128.257 87.4314C128.52 87.6158 128.706 87.6116 128.851 87.4273C128.961 87.2868 129.032 87.1256 129.102 86.9647C129.2 86.741 129.298 86.5179 129.501 86.3515C129.928 85.9993 130.805 87.0163 130.803 87.2024C130.803 87.2879 130.755 87.3435 130.697 87.4106C130.629 87.4895 130.547 87.5845 130.512 87.763C130.487 87.8895 130.439 88.0229 130.392 88.1527C130.271 88.4861 130.159 88.7957 130.476 88.9042C131.056 89.1017 131.179 88.9162 131.424 88.5466C131.45 88.5064 131.478 88.4639 131.509 88.4196C131.578 88.3183 131.606 88.1871 131.634 88.0552C131.664 87.9158 131.694 87.7756 131.773 87.6693C131.843 87.5759 131.938 87.5211 132.033 87.4657C132.07 87.4443 132.107 87.4229 132.143 87.3991C132.229 87.3537 132.195 87.4166 132.173 87.4572C132.16 87.4809 132.152 87.4971 132.173 87.4797C132.188 87.4676 132.204 87.4479 132.222 87.4262C132.267 87.3698 132.322 87.3004 132.402 87.3178C132.186 86.421 131.902 85.54 131.554 84.6785C131.507 84.6526 131.452 84.627 131.395 84.6008C131.323 84.5669 131.249 84.5323 131.187 84.4954C131.092 84.4029 130.983 84.3276 130.844 84.2822C130.737 84.2469 130.708 84.1836 130.677 84.1164C130.642 84.0391 130.604 83.9567 130.442 83.9059C130.096 83.7964 129.961 83.6969 129.93 83.0904C129.914 82.7871 130.077 82.9221 130.229 83.0479C130.322 83.1249 130.411 83.1985 130.452 83.1663C130.455 83.1642 130.458 83.1619 130.461 83.1594C130.485 83.1405 130.522 83.1119 130.541 83.0827C130.58 83.0661 130.6 83.0947 130.619 83.1231C130.637 83.1501 130.656 83.1769 130.691 83.1652C130.737 83.1499 130.786 83.1234 130.826 83.0933C130.35 82.1723 129.802 81.2955 129.182 80.4664ZM127.788 112.362C127.58 112.611 127.374 112.857 127.443 112.968C127.454 113.049 127.416 113.119 127.335 113.215C127.306 113.25 127.262 113.341 127.21 113.448C128.768 112.499 130.221 111.383 131.553 110.108L127.777 106.334C127.524 106.573 127.264 106.805 126.999 107.03C126.997 107.078 126.993 107.118 126.987 107.146C126.925 107.555 126.907 107.842 127.41 107.998C127.952 108.165 128.857 108.716 128.666 109.25C128.542 109.526 128.314 109.881 128.094 110.224C127.932 110.474 127.776 110.718 127.668 110.919C127.556 111.128 127.726 111.275 127.895 111.421C128.055 111.558 128.213 111.695 128.135 111.881C128.08 112.013 127.933 112.188 127.788 112.362ZM131.575 106.814C131.641 106.969 131.726 107.167 131.829 107.451C132.004 107.928 132.128 108.413 132.012 108.778C131.997 108.82 131.972 108.86 131.937 108.897L132.351 109.311C134.496 107.072 136.193 104.495 137.399 101.646C138.651 98.6893 139.319 95.5577 139.388 92.3302H134.048C133.907 97.4403 131.852 102.072 128.575 105.537L130.492 107.453C130.504 107.426 130.518 107.398 130.536 107.37C130.543 107.357 130.54 107.316 130.537 107.275C130.534 107.236 130.531 107.199 130.536 107.186C130.643 106.961 130.643 106.686 130.642 106.441C130.641 106.339 130.641 106.242 130.648 106.157C130.664 105.965 131.359 106.011 131.408 106.327C131.432 106.479 131.487 106.608 131.575 106.814ZM126.401 62.4232C122.646 60.8356 118.666 59.9971 114.563 59.9264V65.2633C118.918 65.3539 123.015 66.494 126.611 68.4407L126.627 68.4372C126.966 68.3842 127.269 68.3147 127.492 68.2105C127.942 68.0014 128.826 68.4767 129.252 68.7246C129.439 68.8323 129.606 68.9651 129.776 69.1006C129.96 69.2472 130.149 69.397 130.371 69.5219C130.808 69.7674 131.511 70.4723 131.665 71.1825C131.743 71.5395 131.896 71.7049 132 71.8175C132.103 71.9291 132.158 71.989 132.046 72.1323C131.953 72.2516 132.057 72.3095 132.219 72.3995C132.251 72.4175 132.285 72.4367 132.321 72.4579C132.373 72.4844 132.414 72.508 132.447 72.5304L136.126 68.8535C134.793 67.5675 133.345 66.3933 131.813 65.3592C130.109 64.2092 128.289 63.2211 126.401 62.4232ZM137.722 68.8535C143.338 74.6603 146.839 82.5233 146.985 91.2025C146.988 91.3904 146.99 91.5782 146.99 91.7666C146.99 91.9545 146.988 92.1423 146.985 92.3302C146.839 101.009 143.338 108.872 137.722 114.679C137.461 114.949 137.195 115.216 136.924 115.476C131.114 121.089 123.247 124.588 114.563 124.734C114.375 124.737 114.187 124.739 113.999 124.739C113.81 124.739 113.622 124.737 113.435 124.734C104.751 124.588 96.8834 121.089 91.0735 115.476C90.803 115.216 90.5367 114.949 90.2757 114.679C84.6596 108.872 81.1586 101.009 81.0131 92.3302C81.0096 92.1423 81.0078 91.9545 81.0078 91.7666C81.0078 91.5782 81.0096 91.3904 81.0131 91.2025C81.1586 82.5233 84.6596 74.6603 90.2757 68.8535C90.5367 68.5832 90.803 68.3171 91.0735 68.0562C96.8834 62.4432 104.751 58.9442 113.435 58.7988C113.622 58.7958 113.81 58.7935 113.999 58.7935C114.187 58.7935 114.375 58.7958 114.563 58.7988C123.247 58.9442 131.114 62.4432 136.924 68.0562C137.195 68.3171 137.461 68.5832 137.722 68.8535ZM216.495 62.6558V101.768C216.495 110.339 213.242 115.856 205.356 115.856C197.47 115.856 194.315 110.339 194.315 101.768V62.6558H177.656V102.95C177.656 121.768 189.584 129.649 205.356 129.649C221.227 129.649 233.056 121.768 233.056 102.95V62.6558H216.495ZM299.074 62.6558H283.203V103.049H283.006L256.982 62.6558H241.309V128.467H257.179V87.8766H257.376L284.386 128.467H299.074V62.6558ZM346.096 101.768V62.6558H362.657V102.95C362.657 121.768 350.827 129.649 334.957 129.649C319.185 129.649 307.258 121.768 307.258 102.95V62.6558H323.917V101.768C323.917 110.339 327.072 115.856 334.957 115.856C342.843 115.856 346.096 110.339 346.096 101.768ZM97.0992 129.467C95.1178 129.997 93.1322 130.442 91.0795 130.587C88.8559 130.743 86.6424 130.51 84.5749 129.74C82.2247 128.864 79.3282 126.796 77.6744 124.318C77.6697 124.312 77.6655 124.301 77.6697 124.298C77.7415 124.261 77.824 124.285 77.8382 124.294C79.3058 125.421 80.2515 125.794 81.4687 126.211C83.2993 126.839 85.2713 126.966 87.1832 127.066L87.6446 127.09C90.0074 127.213 92.3002 127.332 94.6388 127.711C94.6518 127.714 94.6647 127.715 94.6783 127.718C94.835 127.743 94.9063 127.677 94.8556 127.623C94.8468 127.614 94.8303 127.602 94.8179 127.598C92.5979 126.785 91.0895 125.064 89.9536 122.903C89.6128 122.255 89.1782 121.34 88.7658 120.471L88.7658 120.471L88.7658 120.471C88.2255 119.333 87.7234 118.276 87.5203 118.005C87.5126 117.995 87.5214 117.898 87.545 117.878C87.7135 117.934 90.1574 120.014 91.2669 121.043C91.9539 121.681 92.6207 122.341 93.2877 123.001C93.957 123.663 94.6264 124.325 95.3164 124.966C97.4681 127.02 100.562 127.923 101.682 128.212C101.708 128.219 101.759 128.238 101.771 128.252C101.804 128.295 101.82 128.335 101.827 128.353C101.829 128.361 101.826 128.367 101.819 128.368C101.811 128.369 101.801 128.372 101.791 128.374L101.783 128.376L101.768 128.38C101.579 128.423 101.314 128.482 101 128.552L101 128.552L100.997 128.553C99.8643 128.806 98.1072 129.198 97.0992 129.467ZM89.1493 125.492C89.245 125.513 89.3421 125.529 89.4635 125.549C89.5192 125.559 89.5801 125.569 89.6483 125.581C89.653 125.581 89.6607 125.571 89.6607 125.564C89.6536 125.51 89.6353 125.475 89.6353 125.475C89.6353 125.475 89.5205 125.355 89.4975 125.332C87.9803 123.829 87.0459 121.979 86.3283 120.007C85.984 119.058 85.6562 118.103 85.3285 117.147L85.3283 117.147C85.1542 116.639 84.98 116.131 84.8034 115.625C84.0829 113.563 82.538 110.264 80.6827 108.142C80.6791 108.137 80.6626 108.126 80.6591 108.131C80.6385 108.16 80.6031 108.222 80.6208 108.279C81.0636 109.595 81.2093 111.024 81.3525 112.429C81.41 112.992 81.4671 113.552 81.5429 114.1C82.2769 119.394 84.6604 121.986 84.8948 122.241C84.9029 122.25 84.9085 122.256 84.9113 122.259C84.9778 122.336 84.9172 122.411 84.8576 122.367L84.8288 122.345C84.7298 122.272 84.6429 122.208 84.5413 122.123C82.8244 120.703 81.0857 119.848 79.0671 118.91C77.4498 118.16 76.0823 117.507 74.6099 116.482C71.6206 114.436 70.375 112.833 70.2737 112.702L70.27 112.698C70.2246 112.663 70.1563 112.661 70.1133 112.677C70.3183 113.425 70.6271 114.093 70.9564 114.776C72.2243 117.403 74.1681 119.454 76.4647 121.217C78.7543 122.974 81.2365 123.983 84.0787 124.456C85.235 124.649 86.3823 124.898 87.5298 125.147L87.5304 125.147L87.5309 125.147L87.5314 125.147L87.532 125.147L87.5324 125.147L87.5328 125.147L87.5332 125.148L87.5337 125.148L87.5341 125.148L87.5345 125.148L87.5349 125.148L87.5354 125.148L87.5358 125.148L87.5362 125.148L87.5366 125.148L87.5371 125.148L87.5375 125.148L87.5379 125.149L87.5383 125.149L87.5387 125.149L87.5392 125.149L87.5396 125.149L87.54 125.149L87.5404 125.149L87.5409 125.149L87.5413 125.149L87.5417 125.149L87.5421 125.149L87.5426 125.15C88.0777 125.266 88.613 125.382 89.1493 125.492ZM78.9287 116.618C77.7719 115.913 76.2608 114.993 75.1348 114.242C73.0084 112.822 71.1271 111.135 69.6559 109.013C67.8194 106.361 66.753 103.168 66.8066 99.9142C66.809 99.8041 66.8166 99.6103 66.8296 99.5862C66.8532 99.5762 66.9521 99.6468 66.9574 99.6633C67.6874 101.988 69.006 103.87 70.9297 105.894L71.2392 106.213C72.8077 107.827 75.4283 110.525 76.6831 112.433C76.7191 112.49 76.8204 112.465 76.7833 112.362C76.1375 110.585 75.8618 107.443 76.2489 105.009C76.3846 104.153 76.6191 103.265 76.8636 102.339L76.8636 102.339L76.8636 102.339C77.2125 101.017 77.5819 99.618 77.7142 98.1234C77.7152 98.1185 77.7151 98.1152 77.7151 98.1122C77.715 98.108 77.715 98.1041 77.7177 98.0969C77.7307 98.064 77.7867 97.9868 77.8244 97.9839C77.8246 97.9856 77.826 97.9887 77.8287 97.9947L77.8287 97.9948C77.8381 98.0158 77.8632 98.0719 77.9104 98.2247C78.3458 99.7016 78.8908 101.552 78.9827 103.27C79.0343 104.24 78.976 105.34 78.9169 106.455C78.8498 107.721 78.7817 109.006 78.8725 110.14L78.8886 110.341C79.0804 112.737 79.2697 115.104 80.3697 117.279C80.3721 117.284 80.3742 117.29 80.3761 117.295C80.3785 117.302 80.3807 117.309 80.3832 117.316C80.4062 117.375 80.3432 117.485 80.3432 117.485C80.3432 117.485 80.3331 117.483 80.329 117.479C80.0217 117.283 79.5217 116.979 78.9287 116.618ZM74.2405 106.606C74.2418 106.604 74.2437 106.605 74.2457 106.607C74.2472 106.608 74.2489 106.61 74.2505 106.609C74.3286 106.551 74.3257 106.529 74.3029 106.355L74.3 106.333C74.0631 103.992 74.4479 102.094 75.2168 99.8793C76.3663 96.5711 77.4769 93.1581 77.838 89.6738C77.8864 89.2092 77.9317 88.4925 77.9188 88.2741C77.8887 88.2611 77.7909 88.3229 77.7862 88.3347C77.2895 89.5784 76.1247 91.4274 75.4524 92.4832C75.3139 92.701 75.1732 92.9187 75.0323 93.1367C73.862 94.9477 72.6732 96.7874 72.5159 98.9607C72.4712 99.5796 72.4765 100.393 72.5589 101.051C72.5601 101.065 72.5348 101.129 72.4818 101.114C72.4729 101.111 72.4464 101.097 72.4387 101.066C72.4126 100.967 72.3858 100.863 72.3582 100.757C72.2222 100.233 72.0669 99.6348 71.8778 98.9984C71.467 97.6057 70.8571 96.3928 70.2361 95.1578C69.0652 92.8293 67.8549 90.4222 67.8649 86.584C67.8572 86.5575 67.7889 86.4563 67.7494 86.4551C67.6864 86.5475 67.5037 86.9739 67.3505 87.4662C64.8917 95.3874 69.6595 101.14 70.8787 102.611C70.9163 102.656 70.9506 102.698 70.9811 102.735C71.3254 103.154 71.748 103.631 72.184 104.125L72.184 104.125C72.9425 104.983 73.7418 105.886 74.2405 106.606ZM72.0014 94.865C71.8417 94.2661 71.1052 91.9436 70.5567 90.3743C70.443 90.0493 69.4756 86.9006 69.2805 85.5386C68.7285 81.6745 70.0035 76.6604 72.26 73.9204C72.2978 73.9334 72.3296 74.0341 72.3231 74.0558C72.2813 74.1848 72.2512 74.2837 72.2141 74.4127C72.1646 74.5811 72.1157 74.7519 72.0762 74.9226C71.4888 77.4412 71.6862 79.2172 71.9749 81.3583C72.0197 81.6907 72.0684 82.0225 72.1169 82.3539C72.3178 83.7246 72.5179 85.09 72.4486 86.4761C72.4438 86.5664 72.423 86.8379 72.3977 87.1702C72.3424 87.8944 72.2651 88.9073 72.2824 88.9622C72.3131 89.057 72.3991 88.9846 72.4091 88.9351C72.4121 88.9198 72.6866 88.1478 72.9618 87.5001C73.0767 87.2204 73.1921 86.9548 73.2894 86.7634C74.1764 85.003 75.3184 84.0721 76.7762 82.8836L76.8681 82.8087C77.8002 82.0037 79.1229 80.6505 79.9996 79.322C80.0827 79.2048 80.2571 79.2331 80.2529 79.2496C80.2011 79.494 79.3939 82.0849 78.8713 83.2921C78.2201 84.7955 77.2285 86.0885 76.2391 87.3787C76.0818 87.5838 75.9245 87.7889 75.7686 87.9947L75.6866 88.1034C75.6319 88.1758 75.5772 88.2481 75.523 88.3216C74.3823 89.8532 72.5588 93.1178 72.1192 94.7925C72.1069 94.8402 72.0055 94.8838 72.0014 94.865ZM73.8111 81.8694C73.8111 82.4418 73.7722 83.2514 73.7716 83.2591C73.768 83.2927 73.8635 83.2332 73.8723 83.2226C74.4485 82.4936 75.8926 80.7052 77.976 78.9634C78.3027 78.6933 78.6342 78.4263 78.9662 78.1588C79.8215 77.4698 80.6799 76.7782 81.4681 76.0261C82.9888 74.5734 83.8767 72.122 84.1401 70.7971C84.1451 70.7656 84.1504 70.736 84.1552 70.7086C84.1682 70.6345 84.1784 70.5767 84.1754 70.5427C84.1465 70.5321 84.0529 70.5651 84.0399 70.5815L83.9264 70.729C83.8082 70.8822 83.69 71.0356 83.5744 71.1916C82.6889 72.3911 81.758 73.1166 80.536 73.918C78.4786 75.2153 77.0351 76.1993 75.8714 77.775L75.863 77.7861C75.8565 77.7945 75.8499 77.8032 75.8437 77.8121C75.7913 77.9081 75.6864 77.8616 75.7182 77.7615C76.0026 76.8427 76.1559 76.2015 76.3324 75.4628L76.3325 75.4628C76.3758 75.2816 76.4205 75.0946 76.4689 74.8961C76.6114 74.3076 76.7264 73.6519 76.8433 72.9855C77.0559 71.7729 77.2748 70.5251 77.6767 69.5834C78.0697 68.6589 78.6329 67.8698 79.3559 67.1644C79.3635 67.1585 79.37 67.1532 79.3736 67.1444C79.403 67.0572 79.3877 66.9889 79.383 66.9913C79.2752 67.0166 79.1066 67.0808 78.9812 67.1432C76.8271 68.2149 75.3865 69.9473 74.4179 72.1255C73.8222 73.4687 73.6632 74.8696 73.6602 76.287C73.659 76.7628 73.6744 77.2398 73.6962 77.7144C73.7527 78.8892 73.8099 80.5939 73.8111 81.8694ZM78.3229 73.6619C78.3041 73.6696 78.2734 73.6584 78.2734 73.6584C78.2734 73.6584 78.277 73.6419 78.2776 73.6319C78.4013 72.9582 79.4624 68.0142 82.5586 65.5675C84.2224 64.1289 86.4325 63.248 88.5795 62.6567C88.6013 62.6974 88.5759 62.8045 88.5636 62.801C88.5097 62.8493 88.4633 62.8892 88.4166 62.9294L88.4162 62.9297L88.4161 62.9298C88.3735 62.9663 88.3307 63.0031 88.2819 63.0466C87.0346 64.1542 86.033 65.4662 85.0974 66.8394L84.9926 66.9932C84.1298 68.2601 83.2635 69.5322 82.0902 70.5492C81.2824 71.3636 78.9357 73.1873 78.3483 73.6419C78.3448 73.6445 78.3413 73.6476 78.3379 73.6506C78.3326 73.6553 78.3276 73.6598 78.3229 73.6619ZM150.146 124.294C148.678 125.421 147.732 125.794 146.515 126.211C144.684 126.839 142.712 126.966 140.801 127.066L140.339 127.09H140.339C137.976 127.213 135.684 127.332 133.346 127.711L133.34 127.712L133.34 127.712L133.324 127.715C133.318 127.716 133.312 127.717 133.306 127.718C133.149 127.743 133.078 127.677 133.128 127.624C133.137 127.615 133.154 127.602 133.166 127.598C135.386 126.785 136.894 125.064 138.031 122.903C138.37 122.257 138.804 121.344 139.215 120.478L139.215 120.478C139.756 119.337 140.26 118.276 140.464 118.005C140.471 117.995 140.462 117.898 140.439 117.878C140.271 117.934 137.827 120.014 136.717 121.043C136.03 121.681 135.363 122.341 134.696 123.001C134.027 123.663 133.358 124.326 132.668 124.966C130.516 127.02 127.422 127.923 126.303 128.212C126.276 128.219 126.225 128.238 126.213 128.252C126.18 128.295 126.163 128.335 126.157 128.353C126.155 128.361 126.158 128.367 126.166 128.368L126.176 128.37L126.189 128.373L126.189 128.373L126.19 128.373L126.19 128.374C126.199 128.376 126.209 128.378 126.216 128.38C126.407 128.423 126.675 128.483 126.993 128.554L126.993 128.554C128.126 128.807 129.879 129.199 130.885 129.467C132.866 129.998 134.852 130.442 136.904 130.587C139.128 130.743 141.341 130.51 143.409 129.74C145.759 128.864 148.656 126.796 150.31 124.318C150.314 124.312 150.319 124.301 150.314 124.298C150.243 124.261 150.16 124.285 150.146 124.294ZM157.71 112.705L157.715 112.698C157.76 112.664 157.829 112.66 157.872 112.677C157.667 113.425 157.358 114.094 157.028 114.776C155.76 117.402 153.816 119.454 151.52 121.218C149.231 122.974 146.748 123.983 143.906 124.456C142.753 124.648 141.608 124.897 140.464 125.145L140.463 125.145L140.463 125.146L140.463 125.146L140.462 125.146L140.462 125.146L140.462 125.146L140.461 125.146L140.461 125.146L140.46 125.146L140.46 125.146L140.46 125.146L140.459 125.146L140.459 125.146L140.459 125.146L140.458 125.146L140.458 125.147L140.458 125.147L140.457 125.147L140.457 125.147L140.456 125.147L140.456 125.147L140.456 125.147L140.455 125.147L140.455 125.147L140.454 125.147L140.454 125.147L140.453 125.147L140.453 125.148L140.452 125.148L140.451 125.148L140.451 125.148L140.45 125.148L140.45 125.148L140.449 125.148L140.449 125.148L140.448 125.149L140.448 125.149L140.447 125.149L140.447 125.149L140.446 125.149L140.446 125.149L140.445 125.149L140.445 125.149C139.909 125.266 139.373 125.382 138.836 125.493C138.735 125.514 138.633 125.531 138.504 125.552C138.453 125.561 138.397 125.57 138.336 125.58L138.335 125.581L138.334 125.58L138.333 125.58C138.333 125.58 138.332 125.579 138.331 125.578C138.33 125.577 138.33 125.576 138.329 125.575C138.328 125.574 138.327 125.572 138.326 125.571L138.325 125.569C138.325 125.567 138.324 125.565 138.324 125.564C138.331 125.51 138.35 125.475 138.35 125.475C138.35 125.475 138.464 125.355 138.487 125.331C140.005 123.83 140.939 121.98 141.656 120.007C142.003 119.052 142.333 118.091 142.662 117.13L142.663 117.13C142.835 116.628 143.007 116.126 143.181 115.625C143.902 113.562 145.447 110.264 147.302 108.142C147.306 108.138 147.322 108.127 147.325 108.131C147.346 108.16 147.382 108.223 147.364 108.28C146.921 109.596 146.775 111.025 146.632 112.431C146.574 112.994 146.517 113.553 146.441 114.1C145.708 119.395 143.324 121.986 143.09 122.241L143.089 122.242L143.088 122.242L143.073 122.259C143.007 122.336 143.068 122.411 143.127 122.367C143.239 122.285 143.332 122.216 143.444 122.124C145.16 120.703 146.899 119.847 148.918 118.91C150.535 118.16 151.903 117.507 153.374 116.482C156.35 114.446 157.597 112.849 157.71 112.705ZM161.156 99.5862C161.133 99.5762 161.033 99.6468 161.028 99.6633C160.298 101.988 158.979 103.87 157.056 105.894C156.955 105.998 156.849 106.107 156.737 106.222C155.168 107.838 152.555 110.529 151.303 112.433C151.266 112.491 151.165 112.466 151.203 112.362C151.848 110.585 152.124 107.444 151.737 105.009C151.601 104.153 151.367 103.265 151.122 102.339L151.122 102.339C150.773 101.017 150.403 99.6181 150.271 98.1234C150.27 98.1187 150.27 98.1155 150.271 98.1125C150.271 98.1082 150.271 98.1043 150.268 98.0969C150.255 98.064 150.199 97.9868 150.162 97.9839C150.161 97.9856 150.16 97.9886 150.157 97.9944C150.148 98.0152 150.122 98.0711 150.076 98.2247L150.075 98.2259L150.075 98.2261C149.64 99.7027 149.095 101.552 149.003 103.27C148.952 104.24 149.01 105.34 149.069 106.455C149.136 107.721 149.204 109.006 149.113 110.141L149.097 110.346C148.905 112.741 148.715 115.106 147.616 117.279C147.61 117.29 147.607 117.303 147.603 117.316C147.58 117.375 147.642 117.485 147.642 117.485L147.645 117.484L147.649 117.483L147.653 117.481C147.655 117.481 147.656 117.48 147.657 117.479C147.962 117.285 148.456 116.984 149.043 116.627C150.201 115.921 151.72 114.996 152.851 114.242C154.978 112.822 156.858 111.135 158.329 109.013C160.166 106.361 161.233 103.168 161.179 99.9142C161.177 99.8041 161.169 99.6103 161.156 99.5862ZM155.501 101.114C155.51 101.111 155.537 101.097 155.544 101.066C155.573 100.957 155.602 100.844 155.633 100.727L155.633 100.727C155.767 100.21 155.92 99.6226 156.105 98.9984C156.516 97.6058 157.126 96.3929 157.747 95.158C158.918 92.8293 160.128 90.4221 160.118 86.5835C160.126 86.5575 160.194 86.4563 160.234 86.4551C160.297 86.5475 160.48 86.9733 160.633 87.4656C163.091 95.3874 158.324 101.14 157.104 102.611C157.067 102.656 157.033 102.698 157.002 102.735C156.658 103.154 156.235 103.631 155.799 104.125L155.799 104.125L155.799 104.125C155.041 104.982 154.242 105.886 153.743 106.606C153.742 106.605 153.742 106.605 153.741 106.605L153.74 106.605L153.738 106.607C153.736 106.608 153.734 106.61 153.733 106.609C153.655 106.551 153.657 106.529 153.68 106.355L153.683 106.333C153.92 103.992 153.536 102.094 152.766 99.8793C151.617 96.5711 150.507 93.1581 150.145 89.6738C150.097 89.2092 150.051 88.4919 150.065 88.2741C150.094 88.2611 150.193 88.3224 150.197 88.3347C150.694 89.5778 151.858 91.4268 152.531 92.4832C152.669 92.701 152.81 92.9187 152.951 93.1367C154.121 94.9477 155.31 96.7874 155.467 98.9607C155.513 99.5796 155.507 100.392 155.424 101.051C155.423 101.065 155.448 101.129 155.501 101.114ZM151.115 82.8087C150.183 82.0037 148.861 80.6505 147.984 79.322C147.901 79.2048 147.726 79.2331 147.731 79.2496C147.782 79.494 148.59 82.0849 149.112 83.2921C149.763 84.7955 150.755 86.0884 151.744 87.3786L151.744 87.3787L151.745 87.3789L151.745 87.3791L151.745 87.3793L151.745 87.3795L151.745 87.3798C151.902 87.5845 152.059 87.7893 152.215 87.9947L152.297 88.103L152.372 88.2029C152.402 88.2422 152.431 88.2817 152.461 88.3216C153.601 89.8532 155.425 93.1178 155.864 94.7925C155.877 94.8402 155.978 94.8838 155.983 94.865C156.142 94.2661 156.878 91.9436 157.427 90.3743C157.54 90.0493 158.508 86.9006 158.703 85.5386C159.255 81.6745 157.98 76.6604 155.723 73.9204C155.686 73.9334 155.654 74.0341 155.66 74.0558C155.702 74.1848 155.732 74.2837 155.77 74.4127C155.819 74.5811 155.868 74.7519 155.907 74.9226C156.495 77.4412 156.297 79.2172 156.009 81.3583C155.964 81.6929 155.915 82.0269 155.866 82.3606L155.866 82.361L155.866 82.3612L155.866 82.3614L155.866 82.3616L155.866 82.3618L155.866 82.362V82.3621V82.3622V82.3622V82.3623V82.3624V82.3625V82.3625V82.3626V82.3627V82.3628V82.3628V82.3629V82.363V82.3631V82.3631V82.3632V82.3633V82.3634V82.3634C155.665 83.7309 155.466 85.0932 155.535 86.4761C155.54 86.5667 155.561 86.8397 155.586 87.1734C155.642 87.8974 155.719 88.9074 155.702 88.9622C155.67 89.057 155.584 88.9846 155.575 88.9351C155.571 88.9198 155.297 88.1478 155.022 87.5001C154.907 87.2204 154.791 86.9548 154.694 86.7634C153.807 85.003 152.665 84.0721 151.207 82.8836L151.115 82.8087ZM150.308 69.5835C149.915 68.6584 149.352 67.8699 148.629 67.1639C148.621 67.1586 148.615 67.1527 148.611 67.1439C148.582 67.0573 148.597 66.989 148.601 66.9908C148.71 67.0161 148.878 67.0803 149.004 67.1433C151.158 68.2144 152.598 69.9468 153.566 72.125C154.162 73.4688 154.321 74.8697 154.324 76.2865C154.326 76.7623 154.31 77.2393 154.288 77.7139C154.232 78.8892 154.175 80.594 154.174 81.8689C154.174 82.4418 154.213 83.2509 154.213 83.2586C154.217 83.2921 154.121 83.2333 154.112 83.2221C153.536 82.4937 152.092 80.7053 150.008 78.9629C149.682 78.6928 149.35 78.4258 149.018 78.1584L149.018 78.1584L149.018 78.1583L149.018 78.1582L149.018 78.1582L149.018 78.1581L149.018 78.158L149.018 78.158L149.018 78.1579L149.018 78.1579L149.017 78.1576L149.017 78.1573L149.017 78.157L149.016 78.1567L149.016 78.1565L149.016 78.1562L149.015 78.1559L149.015 78.1556L149.014 78.1551L149.014 78.1551C148.161 77.4671 147.303 76.7765 146.517 76.0256C144.996 74.5729 144.108 72.1221 143.845 70.7971C143.839 70.7643 143.834 70.7335 143.829 70.7051L143.829 70.705C143.816 70.6323 143.806 70.5758 143.809 70.5428C143.838 70.5316 143.931 70.5645 143.945 70.581L144.046 70.7125C144.168 70.8712 144.291 71.03 144.41 71.1911C145.296 72.3906 146.227 73.1161 147.449 73.9181C149.506 75.2154 150.95 76.1987 152.113 77.7745C152.121 77.7869 152.132 77.7987 152.14 77.8122C152.193 77.9076 152.298 77.8617 152.266 77.7616C151.982 76.842 151.829 76.201 151.652 75.4618C151.609 75.2808 151.564 75.0939 151.516 74.8956C151.373 74.3061 151.258 73.6492 151.141 72.9818C150.928 71.7704 150.71 70.5243 150.308 69.5835ZM139.423 62.801C139.475 62.8478 139.521 62.8867 139.566 62.9256C139.61 62.9636 139.654 63.0015 139.705 63.0466C140.952 64.1542 141.954 65.4662 142.889 66.8394L142.999 67.0012C143.861 68.2655 144.725 69.5344 145.896 70.5492C146.704 71.3636 149.051 73.1873 149.638 73.6419C149.647 73.6484 149.656 73.6584 149.663 73.6619C149.682 73.6696 149.713 73.6584 149.713 73.6584L149.711 73.6459L149.71 73.6417L149.709 73.6319C149.586 72.9582 148.524 68.0142 145.428 65.5675C143.764 64.1289 141.554 63.248 139.407 62.6567C139.385 62.6974 139.41 62.8045 139.423 62.801ZM113.152 99.5978C113.395 99.2327 112.789 99.003 112.632 99.6361C112.484 100.226 112.908 99.9611 113.152 99.5978ZM142.047 131.641C141.9 131.705 141.81 131.752 141.668 131.825C139.105 133.144 136.404 133.297 133.629 132.763C131.76 132.403 130.021 131.661 128.283 130.918L128.283 130.918L128.209 130.886C127.897 130.753 127.586 130.617 127.275 130.48C126.325 130.064 125.375 129.648 124.395 129.325C121.022 128.212 117.604 128.226 114.172 129.094C114.117 129.109 114.058 129.117 114.001 129.124L113.998 129.125C113.938 129.117 113.88 129.11 113.824 129.094C110.391 128.226 106.973 128.212 103.6 129.325C102.621 129.648 101.672 130.064 100.723 130.48L100.723 130.48L100.723 130.48L100.723 130.48L100.723 130.48L100.723 130.48L100.723 130.48L100.723 130.48L100.723 130.48L100.723 130.48L100.723 130.48L100.723 130.48L100.723 130.48L100.722 130.48L100.722 130.48L100.722 130.48C100.411 130.617 100.099 130.753 99.7872 130.886L99.7048 130.921L99.7047 130.921C97.9682 131.663 96.2325 132.404 94.3667 132.763C91.591 133.297 88.8908 133.144 86.3278 131.825C86.1852 131.752 86.0951 131.705 85.9484 131.641C85.9048 131.631 85.8382 131.671 85.8164 131.696C87.541 133.463 89.7575 134.681 91.8797 135.284C93.4546 135.732 95.0401 135.807 96.6621 135.625C99.1603 135.345 101.363 134.345 103.429 132.987C104.666 132.175 105.891 131.342 107.115 130.509C108.521 129.552 110.073 129.378 111.706 129.644C112.591 129.74 111.92 130.165 111.784 130.232C109.591 131.305 107.526 132.592 105.596 134.08C104.285 135.041 101.944 137.295 101.944 137.295L103.695 138.793C103.695 138.793 105.031 137.298 105.611 136.716C109.169 133.014 112.347 131.234 113.396 130.647C113.479 130.6 113.549 130.561 113.605 130.529C113.737 130.453 113.863 130.381 113.998 130.381C114.132 130.381 114.259 130.453 114.391 130.529C114.447 130.561 114.517 130.6 114.6 130.647L114.601 130.648C115.651 131.236 118.828 133.016 122.383 136.716C122.965 137.298 124.3 138.793 124.3 138.793L126.05 137.295C126.05 137.295 123.711 135.041 122.4 134.08C120.47 132.592 118.405 131.305 116.211 130.232C116.076 130.165 115.405 129.74 116.29 129.644C117.923 129.378 119.474 129.552 120.88 130.509L120.881 130.51C122.105 131.342 123.329 132.175 124.566 132.987C126.633 134.345 128.836 135.345 131.333 135.625C132.955 135.807 134.541 135.732 136.116 135.284C138.238 134.681 140.449 133.471 142.174 131.704C142.152 131.679 142.091 131.631 142.047 131.641ZM99.5895 96.2013C99.7457 96.3279 99.7645 96.9821 99.7433 97.2059C99.7162 97.6051 99.4252 97.1105 99.3073 96.8078C99.1895 96.5063 99.0416 95.9863 99.1524 95.9863C99.2108 95.9857 99.2359 96.0719 99.2598 96.1539C99.2807 96.2258 99.3008 96.2946 99.3415 96.299C99.3885 96.3044 99.4121 96.2664 99.4352 96.2294C99.4673 96.1778 99.4982 96.1282 99.5895 96.2013ZM99.5752 95.6176C99.6111 95.5405 99.8491 94.4517 99.8126 94.0348C99.7755 93.6196 99.5546 93.228 99.498 93.2569C99.4565 93.2779 99.4708 93.3626 99.4944 93.5018C99.5136 93.6155 99.539 93.7656 99.5451 93.947C99.5581 94.3364 99.4437 94.6835 99.3613 94.9339C99.3162 95.0708 99.2806 95.1788 99.2806 95.249C99.2794 95.4362 99.4597 95.8602 99.5752 95.6176ZM106.859 96.4815C106.949 96.7371 106.843 97.257 106.697 97.257C106.549 97.257 106.212 96.657 106.253 96.5369C106.295 96.4179 106.767 96.2265 106.859 96.4815ZM111.007 90.9065C111.14 90.9065 111.196 90.8504 111.244 90.8025C111.281 90.7651 111.313 90.7326 111.373 90.7357C111.433 90.738 111.446 90.7716 111.461 90.809C111.48 90.8585 111.502 90.9148 111.638 90.9148C111.877 90.9148 112.127 90.3018 111.361 90.3018C110.737 90.3018 110.82 90.8977 111.007 90.9065ZM111.555 91.6109C111.637 91.5369 111.715 91.4664 112.003 91.5407C112.444 91.6537 112.872 92.6383 112.461 92.5435C112.102 92.4622 111.024 92.3392 110.819 92.3256C110.614 92.3127 110.617 91.891 110.63 91.7662C110.651 91.5071 110.935 91.0937 111.041 91.1756C111.143 91.2567 111.122 91.3787 111.103 91.4872C111.078 91.631 111.057 91.7511 111.333 91.7209C111.448 91.7084 111.502 91.6589 111.555 91.6109ZM112.612 96.6942C112.553 96.6652 112.461 96.6722 112.372 96.679C112.251 96.6882 112.135 96.697 112.114 96.6153C112.076 96.4734 111.827 96.4964 111.889 96.6271C111.915 96.6825 111.905 96.7385 111.896 96.7971C111.882 96.8767 111.868 96.9611 111.941 97.0558C112.109 97.2348 112.471 97.213 112.652 97.0646C112.757 96.951 112.691 96.736 112.612 96.6942ZM120.628 83.7691C120.747 83.8627 120.106 84.2107 119.961 84.1347C119.814 84.0588 119.72 83.8851 119.741 83.5388C119.757 83.3262 120.51 83.6743 120.628 83.7691ZM119.753 84.3429C119.519 84.2204 118.553 85.397 118.708 85.5872C118.777 85.6637 119.839 84.3994 119.753 84.3429ZM127.375 83.3528C127.86 83.3398 127.92 82.9217 127.767 82.5667C127.656 82.3105 127.728 82.0597 127.762 81.9849C127.783 81.9431 128.229 81.2559 128.485 81.2559C128.83 81.2559 128.949 81.6469 128.939 81.9442C128.938 81.965 128.938 81.9851 128.937 82.0046C128.933 82.1866 128.931 82.3129 128.702 82.4012C128.612 82.436 128.521 82.4002 128.429 82.3642C128.309 82.3174 128.189 82.2703 128.069 82.377C127.936 82.4953 128.067 82.7435 128.172 82.9406C128.221 83.033 128.263 83.1142 128.27 83.1655C128.308 83.4299 128.106 83.5654 127.933 83.6743C127.769 83.7779 127.411 83.8309 127.298 83.7721C127.047 83.6437 127.113 83.3593 127.375 83.3528ZM133.618 83.3744C133.496 82.9999 132.965 81.7775 132.789 81.8204C132.686 81.8452 132.832 82.2214 132.962 82.5554C133.03 82.7298 133.093 82.8928 133.114 82.9881C133.14 83.1043 133.126 83.1754 133.11 83.254C133.101 83.2974 133.092 83.343 133.089 83.3998C133.084 83.4799 133.2 83.8023 133.321 84.1401C133.439 84.4697 133.563 84.814 133.585 84.9626C133.59 84.9963 133.596 85.0375 133.603 85.084C133.655 85.4527 133.754 86.1535 133.969 86.0714C134.122 86.0119 134.108 85.4602 134.075 85.2464C133.976 84.6199 133.85 84.0781 133.618 83.3744ZM131.59 94.321C131.893 94.3092 131.932 94.8351 131.611 94.9069C131.515 94.9281 131.422 94.8913 131.322 94.8516C131.239 94.8185 131.15 94.7834 131.051 94.7785C130.959 94.7727 131.287 94.3345 131.59 94.321ZM117.075 64.9538C116.776 64.7606 116.767 64.5288 116.758 64.3031C116.75 64.1016 116.743 63.9049 116.529 63.7449C116.212 63.507 115.323 63.7426 115.103 64.0246C114.841 64.363 115.169 64.3928 115.504 64.4232C115.658 64.4372 115.813 64.4514 115.913 64.4957C116.048 64.5552 116.242 64.6864 116.437 64.8191C116.756 65.0356 117.081 65.2559 117.165 65.1741C117.268 65.0728 117.198 65.0319 117.132 64.9924C117.111 64.98 117.09 64.9678 117.075 64.9538ZM116.958 63.6366C116.884 62.8899 119.755 62.8746 120.518 63.2226C121.09 63.5164 119.914 63.586 119.294 63.6227C119.184 63.6292 119.092 63.6346 119.03 63.6401C118.93 63.6486 118.762 63.6899 118.563 63.7387C117.936 63.8923 117.005 64.1205 116.958 63.6366ZM130.068 68.6838C130.35 68.7909 130.349 68.2645 129.87 67.8758C129.394 67.4878 128.759 67.6762 128.931 67.8676C129.086 68.0401 129.818 68.5884 130.068 68.6838Z" fill="white"/>
<path fill-rule="evenodd" clip-rule="evenodd" d="M303.978 420.32H747.461V1.89014C743.539 296.637 553.885 420.32 303.978 420.32" fill="#4097DB"/>
</svg>
